<svg width="48" height="49" viewBox="0 0 48 49" fill="none" xmlns="http://www.w3.org/2000/svg">
<rect y="0.0107422" width="48" height="48" rx="12" fill="#00A746"/>
<path d="M25.028 14.0107C26.153 14.0137 26.724 14.0197 27.217 14.0337L27.411 14.0407C27.635 14.0487 27.856 14.0587 28.123 14.0707C29.187 14.1207 29.913 14.2887 30.55 14.5357C31.21 14.7897 31.766 15.1337 32.322 15.6887C32.8305 16.1886 33.224 16.7933 33.475 17.4607C33.722 18.0977 33.89 18.8237 33.94 19.8887C33.952 20.1547 33.962 20.3757 33.97 20.6007L33.976 20.7947C33.991 21.2867 33.997 21.8577 33.999 22.9827L34 23.7287V25.0387C34.0025 25.7681 33.9948 26.4976 33.977 27.2267L33.971 27.4207C33.963 27.6457 33.953 27.8667 33.941 28.1327C33.891 29.1977 33.721 29.9227 33.475 30.5607C33.2247 31.2285 32.8311 31.8334 32.322 32.3327C31.822 32.8411 31.2173 33.2345 30.55 33.4857C29.913 33.7327 29.187 33.9007 28.123 33.9507C27.8857 33.9619 27.6484 33.9719 27.411 33.9807L27.217 33.9867C26.724 34.0007 26.153 34.0077 25.028 34.0097L24.282 34.0107H22.973C22.2433 34.0133 21.5135 34.0056 20.784 33.9877L20.59 33.9817C20.3526 33.9728 20.1153 33.9624 19.878 33.9507C18.814 33.9007 18.088 33.7327 17.45 33.4857C16.7827 33.2351 16.1782 32.8416 15.679 32.3327C15.17 31.833 14.7762 31.2283 14.525 30.5607C14.278 29.9237 14.11 29.1977 14.06 28.1327C14.0489 27.8955 14.0389 27.6581 14.03 27.4207L14.025 27.2267C14.0066 26.4976 13.9982 25.7682 14 25.0387V22.9827C13.9972 22.2533 14.0045 21.5239 14.022 20.7947L14.029 20.6007C14.037 20.3757 14.047 20.1547 14.059 19.8887C14.109 18.8237 14.277 18.0987 14.524 17.4607C14.7751 16.7926 15.1697 16.1878 15.68 15.6887C16.1791 15.1802 16.7831 14.7867 17.45 14.5357C18.088 14.2887 18.813 14.1207 19.878 14.0707C20.144 14.0587 20.366 14.0487 20.59 14.0407L20.784 14.0347C21.5132 14.017 22.2426 14.0093 22.972 14.0117L25.028 14.0107ZM24 19.0107C22.6739 19.0107 21.4021 19.5375 20.4645 20.4752C19.5268 21.4129 19 22.6847 19 24.0107C19 25.3368 19.5268 26.6086 20.4645 27.5463C21.4021 28.484 22.6739 29.0107 24 29.0107C25.3261 29.0107 26.5978 28.484 27.5355 27.5463C28.4732 26.6086 29 25.3368 29 24.0107C29 22.6847 28.4732 21.4129 27.5355 20.4752C26.5978 19.5375 25.3261 19.0107 24 19.0107ZM24 21.0107C24.394 21.0107 24.7841 21.0882 25.1481 21.2389C25.5121 21.3896 25.8428 21.6105 26.1215 21.8891C26.4001 22.1676 26.6211 22.4983 26.7719 22.8622C26.9228 23.2262 27.0004 23.6163 27.0005 24.0102C27.0006 24.4042 26.923 24.7943 26.7723 25.1583C26.6216 25.5223 26.4007 25.8531 26.1222 26.1317C25.8436 26.4103 25.513 26.6314 25.149 26.7822C24.7851 26.933 24.395 27.0107 24.001 27.0107C23.2053 27.0107 22.4423 26.6947 21.8797 26.1321C21.3171 25.5695 21.001 24.8064 21.001 24.0107C21.001 23.2151 21.3171 22.452 21.8797 21.8894C22.4423 21.3268 23.2053 21.0107 24.001 21.0107M29.251 17.5107C28.9195 17.5107 28.6015 17.6424 28.3671 17.8769C28.1327 18.1113 28.001 18.4292 28.001 18.7607C28.001 19.0923 28.1327 19.4102 28.3671 19.6446C28.6015 19.879 28.9195 20.0107 29.251 20.0107C29.5825 20.0107 29.9005 19.879 30.1349 19.6446C30.3693 19.4102 30.501 19.0923 30.501 18.7607C30.501 18.4292 30.3693 18.1113 30.1349 17.8769C29.9005 17.6424 29.5825 17.5107 29.251 17.5107Z" fill="#E6F6ED"/>
</svg>
