<svg width="48" height="49" viewBox="0 0 48 49" fill="none" xmlns="http://www.w3.org/2000/svg">
<rect y="0.0107422" width="48" height="48" rx="12" fill="#00A746"/>
<path d="M34.46 18.0107C33.69 18.3607 32.86 18.5907 32 18.7007C32.88 18.1707 33.56 17.3307 33.88 16.3207C33.05 16.8207 32.13 17.1707 31.16 17.3707C30.37 16.5107 29.26 16.0107 28 16.0107C25.65 16.0107 23.73 17.9307 23.73 20.3007C23.73 20.6407 23.77 20.9707 23.84 21.2807C20.28 21.1007 17.11 19.3907 15 16.8007C14.63 17.4307 14.42 18.1707 14.42 18.9507C14.42 20.4407 15.17 21.7607 16.33 22.5107C15.62 22.5107 14.96 22.3107 14.38 22.0107V22.0407C14.38 24.1207 15.86 25.8607 17.82 26.2507C17.1907 26.423 16.5301 26.4469 15.89 26.3207C16.1616 27.1732 16.6935 27.9192 17.411 28.4537C18.1285 28.9882 18.9955 29.2844 19.89 29.3007C18.3736 30.5012 16.494 31.1501 14.56 31.1407C14.22 31.1407 13.88 31.1207 13.54 31.0807C15.44 32.3007 17.7 33.0107 20.12 33.0107C28 33.0107 32.33 26.4707 32.33 20.8007C32.33 20.6107 32.33 20.4307 32.32 20.2407C33.16 19.6407 33.88 18.8807 34.46 18.0107Z" fill="#E6F6ED"/>
</svg>
